<svg width="37" height="46" viewBox="0 0 37 46" fill="none" xmlns="http://www.w3.org/2000/svg">
<path d="M16.5 3.08455C18.1 1.88455 19.1667 1.91788 19.5 2.08455C20.5757 2.08455 22 4.08453 23 4.58453C24 5.08453 28.5 8.58453 30.5 8.58453C32.5 8.58453 32.5 8.58453 34 9.58453C35.5 10.5845 34.5 16.0845 34.5 20.0845C34.5 24.0845 34.5 30.5845 32 34.5845C29.5 38.5845 19 43.5845 17.5 43.5845C16 43.5845 8.5 38.5845 5.5 35.5845C3.1 33.1845 2.16667 29.9179 2 28.5845V11.0845C2 7.08453 5.5 8.08453 9 7.58453C12.5 7.08453 14.5 4.58455 16.5 3.08455Z" stroke="white" stroke-width="4"/>
</svg>
