<svg width="18" height="16" viewBox="0 0 18 16" fill="none" xmlns="http://www.w3.org/2000/svg">
<path d="M9.1816 14.2871C9.03436 14.4312 8.77259 14.4552 8.6008 14.2871C8.45355 14.1431 8.42901 13.8869 8.6008 13.7189L11.3739 11.0055L10.2205 9.87694L7.44737 12.5903C7.29195 12.7504 7.03018 12.7424 6.86657 12.5903C6.69478 12.4222 6.71932 12.1661 6.86657 12.022L9.6397 9.30865L8.48627 8.18009L5.71314 10.8934C5.5659 11.0375 5.30413 11.0615 5.13234 10.8934C4.97691 10.7414 4.97691 10.4852 5.13234 10.3252L7.90547 7.61181L6.74386 6.48324L3.97073 9.1966C3.82349 9.34067 3.56171 9.36468 3.38993 9.1966C3.2345 9.03652 3.2345 8.78839 3.38993 8.62831L6.97291 5.12256L8.50264 6.61131C9.27977 7.37169 10.6213 7.36368 11.3985 6.61131C12.2001 5.82691 12.2001 4.56228 11.3985 3.77789L9.87693 2.28914L10.106 2.06503C10.744 1.44072 11.7829 1.44072 12.421 2.06503L15.8895 5.45873C16.5275 6.08304 16.5275 7.09955 15.8895 7.72386L9.1816 14.2871ZM17.0429 8.86043C18.319 7.61181 18.319 5.58679 17.0429 4.33016L13.5744 0.936468C12.2983 -0.312156 10.2287 -0.312156 8.94437 0.936468L8.71532 1.16058L8.48627 0.936468C7.21014 -0.312156 5.14052 -0.312156 3.85621 0.936468L0.960369 3.76989C-0.201238 4.90645 -0.307582 6.67534 0.633156 7.92396L1.8193 6.76338C1.50027 6.16308 1.60662 5.4027 2.12198 4.89845L5.01781 2.06503C5.65588 1.44072 6.69478 1.44072 7.33285 2.06503L10.245 4.91446C10.3923 5.05853 10.4168 5.31466 10.245 5.48274C10.0733 5.65083 9.81149 5.62681 9.66424 5.48274L6.97291 2.85743L2.22832 7.49175C1.42665 8.26813 1.42665 9.54077 2.22832 10.3252C2.54735 10.6373 2.95637 10.8294 3.38993 10.8854C3.44719 11.3017 3.63534 11.7019 3.96255 12.022C4.28976 12.3422 4.69878 12.5263 5.12416 12.5823C5.18142 12.9985 5.36957 13.3987 5.69678 13.7189C6.02399 14.039 6.43301 14.2231 6.85839 14.2791C6.91565 14.7114 7.11198 15.1036 7.43101 15.4157C7.81549 15.7919 8.33085 16 8.87893 16C9.42701 16 9.94237 15.7919 10.3268 15.4157L17.0429 8.86043Z" fill="#9B9B9B"/>
</svg>
