<svg width="16" height="16" viewBox="0 0 16 16" fill="none" xmlns="http://www.w3.org/2000/svg">
<path d="M14.2222 0H1.77778C0.8 0 0 0.8 0 1.77778V14.2222C0 15.2 0.8 16 1.77778 16H14.2222C15.2 16 16 15.2 16 14.2222V1.77778C16 0.8 15.2 0 14.2222 0ZM14.2222 14.2222H1.77778V10.1511L2.65778 11.0311L6.21333 7.47556L9.76889 11.0311L13.3244 7.48444L14.2222 8.38222V14.2222ZM14.2222 5.85778L13.3244 4.96L9.76889 8.52444L6.21333 4.96889L2.65778 8.52444L1.77778 7.63556V1.77778H14.2222V5.85778Z" fill="#9B9B9B"/>
</svg>
