<svg width="46" height="42" viewBox="0 0 46 42" fill="none" xmlns="http://www.w3.org/2000/svg">
<path d="M30.5 2C32.8077 2 36.5 3.875 36.5 9.5C36.5 15.125 32.8077 17 30.5 17" stroke="white" stroke-width="4" stroke-linecap="round"/>
<path d="M37.5 26.5C38.5 26.5 43.5 27 43.5 31.5C43.5 35.1 43.5 38.3333 43.5 40" stroke="white" stroke-width="4" stroke-linecap="round"/>
<circle cx="16.5" cy="10" r="8" stroke="white" stroke-width="4"/>
<path d="M3 40V32C3 30.1667 4.4 26.5 10 26.5C15.6 26.5 23 26.5 26 26.5C27.8333 26.5 31.5 27.6 31.5 32C31.5 36.4 31.5 40 31.5 40" stroke="white" stroke-width="4" stroke-linecap="round"/>
</svg>
