<svg width="18" height="16" viewBox="0 0 18 16" fill="none" xmlns="http://www.w3.org/2000/svg">
<path d="M16.5461 1.48541C15.6035 0.532433 14.3557 0.0115747 13.0239 0.0115747C11.6922 0.0115747 10.4405 0.536291 9.49798 1.48927L9.00572 1.98698L8.50583 1.48155C7.56328 0.528575 6.30783 0 4.97605 0C3.64809 0 2.39645 0.524716 1.45772 1.47384C0.515177 2.42681 -0.00379508 3.69231 2.08952e-05 5.03882C2.08952e-05 6.38534 0.52281 7.64697 1.46536 8.59995L8.63176 15.8457C8.73097 15.946 8.86453 16 8.99428 16C9.12402 16 9.25758 15.9498 9.35679 15.8495L16.5385 8.61538C17.481 7.66241 18 6.39691 18 5.0504C18.0038 3.70388 17.4886 2.43839 16.5461 1.48541ZM15.8134 7.87847L8.99428 14.7461L2.19039 7.86689C1.44246 7.11068 1.03033 6.10755 1.03033 5.03882C1.03033 3.9701 1.43864 2.96696 2.18657 2.21461C2.93069 1.46226 3.92284 1.04558 4.97605 1.04558C6.03308 1.04558 7.02905 1.46226 7.77698 2.21847L8.63939 3.09043C8.84164 3.29491 9.166 3.29491 9.36824 3.09043L10.223 2.22619C10.971 1.46998 11.9669 1.05329 13.0201 1.05329C14.0733 1.05329 15.0655 1.46998 15.8134 2.22233C16.5614 2.97854 16.9697 3.98167 16.9697 5.0504C16.9735 6.11912 16.5614 7.12226 15.8134 7.87847Z" fill="#797979"/>
</svg>
