<svg width="18" height="16" viewBox="0 0 18 16" fill="none" xmlns="http://www.w3.org/2000/svg">
<path d="M16.5461 1.48541C15.6035 0.532433 14.3557 0.0115747 13.0239 0.0115747C11.6922 0.0115747 10.4405 0.536291 9.49798 1.48927L9.00572 1.98698L8.50583 1.48155C7.56328 0.528575 6.30783 0 4.97605 0C3.64809 0 2.39645 0.524716 1.45772 1.47384C0.515177 2.42681 -0.00379508 3.69231 2.08952e-05 5.03882C2.08952e-05 6.38534 0.52281 7.64697 1.46536 8.59995L8.63176 15.8457C8.73097 15.946 8.86453 16 8.99428 16C9.12402 16 9.25758 15.9498 9.35679 15.8495L16.5385 8.61538C17.481 7.66241 18 6.39691 18 5.0504C18.0038 3.70388 17.4886 2.43839 16.5461 1.48541Z" fill="#FE0000"/>
</svg>
