<svg width="19" height="12" viewBox="0 0 19 12" fill="none" xmlns="http://www.w3.org/2000/svg">
<path d="M2 0.5H14C14.4557 0.5 14.8183 0.619604 15.1133 0.84082C15.405 1.05967 15.5 1.27522 15.5 1.5V10.5C15.5 10.7247 15.4047 10.94 15.1133 11.1592C14.8183 11.38 14.4559 11.5 14 11.5H2C1.54407 11.5 1.18183 11.3808 0.887695 11.1602C0.594922 10.9406 0.5 10.7245 0.5 10.5V1.5C0.5 1.27556 0.595163 1.05985 0.887695 0.84082H0.888672C1.18276 0.619942 1.54437 0.5 2 0.5ZM1.5 11H14.5V1H1.5V11ZM18.5 8.91797L15.582 6L18.5 3.08203V8.91797Z" fill="#9B9B9B" stroke="#9B9B9B"/>
</svg>
